solid Scissors
  facet normal 0.0 0.0 1.0
    outer loop
      vertex -0.05 -0.004 -0.002
      vertex 0.05 -0.004 -0.002
      vertex 0.05 0.004 -0.002
    endloop
  endfacet
  facet normal 0.0 0.0 1.0
    outer loop
      vertex -0.05 -0.004 -0.002
      vertex 0.05 0.004 -0.002
      vertex -0.05 0.004 -0.002
    endloop
  endfacet
  facet normal 0.0 0.0 -1.0
    outer loop
      vertex -0.05 -0.004 0.002
      vertex -0.05 0.004 0.002
      vertex 0.05 0.004 0.002
    endloop
  endfacet
  facet normal 0.0 0.0 -1.0
    outer loop
      vertex -0.05 -0.004 0.002
      vertex 0.05 0.004 0.002
      vertex 0.05 -0.004 0.002
    endloop
  endfacet
  facet normal 0.0 1.0 0.0
    outer loop
      vertex -0.05 -0.004 -0.002
      vertex -0.05 -0.004 0.002
      vertex 0.05 -0.004 0.002
    endloop
  endfacet
  facet normal 0.0 1.0 0.0
    outer loop
      vertex -0.05 -0.004 -0.002
      vertex 0.05 -0.004 0.002
      vertex 0.05 -0.004 -0.002
    endloop
  endfacet
  facet normal -1.0 0.0 0.0
    outer loop
      vertex 0.05 -0.004 -0.002
      vertex 0.05 -0.004 0.002
      vertex 0.05 0.004 0.002
    endloop
  endfacet
  facet normal -1.0 0.0 0.0
    outer loop
      vertex 0.05 -0.004 -0.002
      vertex 0.05 0.004 0.002
      vertex 0.05 0.004 -0.002
    endloop
  endfacet
  facet normal 0.0 -1.0 0.0
    outer loop
      vertex 0.05 0.004 -0.002
      vertex 0.05 0.004 0.002
      vertex -0.05 0.004 0.002
    endloop
  endfacet
  facet normal 0.0 -1.0 0.0
    outer loop
      vertex 0.05 0.004 -0.002
      vertex -0.05 0.004 0.002
      vertex -0.05 0.004 -0.002
    endloop
  endfacet
  facet normal 1.0 0.0 0.0
    outer loop
      vertex -0.05 -0.004 0.002
      vertex -0.05 -0.004 -0.002
      vertex -0.05 0.004 -0.002
    endloop
  endfacet
  facet normal 1.0 -0.0 0.0
    outer loop
      vertex -0.05 -0.004 0.002
      vertex -0.05 0.004 -0.002
      vertex -0.05 0.004 0.002
    endloop
  endfacet
  facet normal 0.0 0.0 1.0
    outer loop
      vertex -0.01 0.02 -0.002
      vertex 0.01 0.02 -0.002
      vertex 0.01 0.028 -0.002
    endloop
  endfacet
  facet normal 0.0 0.0 1.0
    outer loop
      vertex -0.01 0.02 -0.002
      vertex 0.01 0.028 -0.002
      vertex -0.01 0.028 -0.002
    endloop
  endfacet
  facet normal 0.0 0.0 -1.0
    outer loop
      vertex -0.01 0.02 0.002
      vertex -0.01 0.028 0.002
      vertex 0.01 0.028 0.002
    endloop
  endfacet
  facet normal 0.0 0.0 -1.0
    outer loop
      vertex -0.01 0.02 0.002
      vertex 0.01 0.028 0.002
      vertex 0.01 0.02 0.002
    endloop
  endfacet
  facet normal 0.0 1.0 0.0
    outer loop
      vertex -0.01 0.02 -0.002
      vertex -0.01 0.02 0.002
      vertex 0.01 0.02 0.002
    endloop
  endfacet
  facet normal 0.0 1.0 0.0
    outer loop
      vertex -0.01 0.02 -0.002
      vertex 0.01 0.02 0.002
      vertex 0.01 0.02 -0.002
    endloop
  endfacet
  facet normal -1.0 0.0 0.0
    outer loop
      vertex 0.01 0.02 -0.002
      vertex 0.01 0.02 0.002
      vertex 0.01 0.028 0.002
    endloop
  endfacet
  facet normal -1.0 0.0 0.0
    outer loop
      vertex 0.01 0.02 -0.002
      vertex 0.01 0.028 0.002
      vertex 0.01 0.028 -0.002
    endloop
  endfacet
  facet normal 0.0 -1.0 0.0
    outer loop
      vertex 0.01 0.028 -0.002
      vertex 0.01 0.028 0.002
      vertex -0.01 0.028 0.002
    endloop
  endfacet
  facet normal 0.0 -1.0 0.0
    outer loop
      vertex 0.01 0.028 -0.002
      vertex -0.01 0.028 0.002
      vertex -0.01 0.028 -0.002
    endloop
  endfacet
  facet normal 1.0 0.0 0.0
    outer loop
      vertex -0.01 0.02 0.002
      vertex -0.01 0.02 -0.002
      vertex -0.01 0.028 -0.002
    endloop
  endfacet
  facet normal 1.0 -0.0 0.0
    outer loop
      vertex -0.01 0.02 0.002
      vertex -0.01 0.028 -0.002
      vertex -0.01 0.028 0.002
    endloop
  endfacet
  facet normal 0.0 0.0 1.0
    outer loop
      vertex -0.0715 0.023 -0.002
      vertex -0.0185 0.023 -0.002
      vertex -0.0185 0.031 -0.002
    endloop
  endfacet
  facet normal 0.0 0.0 1.0
    outer loop
      vertex -0.0715 0.023 -0.002
      vertex -0.0185 0.031 -0.002
      vertex -0.0715 0.031 -0.002
    endloop
  endfacet
  facet normal 0.0 0.0 -1.0
    outer loop
      vertex -0.0715 0.023 0.002
      vertex -0.0715 0.031 0.002
      vertex -0.0185 0.031 0.002
    endloop
  endfacet
  facet normal 0.0 0.0 -1.0
    outer loop
      vertex -0.0715 0.023 0.002
      vertex -0.0185 0.031 0.002
      vertex -0.0185 0.023 0.002
    endloop
  endfacet
  facet normal 0.0 1.0 0.0
    outer loop
      vertex -0.0715 0.023 -0.002
      vertex -0.0715 0.023 0.002
      vertex -0.0185 0.023 0.002
    endloop
  endfacet
  facet normal 0.0 1.0 0.0
    outer loop
      vertex -0.0715 0.023 -0.002
      vertex -0.0185 0.023 0.002
      vertex -0.0185 0.023 -0.002
    endloop
  endfacet
  facet normal -1.0 0.0 0.0
    outer loop
      vertex -0.0185 0.023 -0.002
      vertex -0.0185 0.023 0.002
      vertex -0.0185 0.031 0.002
    endloop
  endfacet
  facet normal -1.0 0.0 0.0
    outer loop
      vertex -0.0185 0.023 -0.002
      vertex -0.0185 0.031 0.002
      vertex -0.0185 0.031 -0.002
    endloop
  endfacet
  facet normal 0.0 -1.0 0.0
    outer loop
      vertex -0.0185 0.031 -0.002
      vertex -0.0185 0.031 0.002
      vertex -0.0715 0.031 0.002
    endloop
  endfacet
  facet normal 0.0 -1.0 0.0
    outer loop
      vertex -0.0185 0.031 -0.002
      vertex -0.0715 0.031 0.002
      vertex -0.0715 0.031 -0.002
    endloop
  endfacet
  facet normal 1.0 0.0 0.0
    outer loop
      vertex -0.0715 0.023 0.002
      vertex -0.0715 0.023 -0.002
      vertex -0.0715 0.031 -0.002
    endloop
  endfacet
  facet normal 1.0 -0.0 0.0
    outer loop
      vertex -0.0715 0.023 0.002
      vertex -0.0715 0.031 -0.002
      vertex -0.0715 0.031 0.002
    endloop
  endfacet
  facet normal 0.0 0.0 1.0
    outer loop
      vertex -0.07500000000000001 -0.029 -0.002
      vertex -0.041 -0.029 -0.002
      vertex -0.041 -0.021 -0.002
    endloop
  endfacet
  facet normal 0.0 0.0 1.0
    outer loop
      vertex -0.07500000000000001 -0.029 -0.002
      vertex -0.041 -0.021 -0.002
      vertex -0.07500000000000001 -0.021 -0.002
    endloop
  endfacet
  facet normal 0.0 0.0 -1.0
    outer loop
      vertex -0.07500000000000001 -0.029 0.002
      vertex -0.07500000000000001 -0.021 0.002
      vertex -0.041 -0.021 0.002
    endloop
  endfacet
  facet normal 0.0 0.0 -1.0
    outer loop
      vertex -0.07500000000000001 -0.029 0.002
      vertex -0.041 -0.021 0.002
      vertex -0.041 -0.029 0.002
    endloop
  endfacet
  facet normal 0.0 1.0 0.0
    outer loop
      vertex -0.07500000000000001 -0.029 -0.002
      vertex -0.07500000000000001 -0.029 0.002
      vertex -0.041 -0.029 0.002
    endloop
  endfacet
  facet normal 0.0 1.0 0.0
    outer loop
      vertex -0.07500000000000001 -0.029 -0.002
      vertex -0.041 -0.029 0.002
      vertex -0.041 -0.029 -0.002
    endloop
  endfacet
  facet normal -1.0 0.0 0.0
    outer loop
      vertex -0.041 -0.029 -0.002
      vertex -0.041 -0.029 0.002
      vertex -0.041 -0.021 0.002
    endloop
  endfacet
  facet normal -1.0 0.0 0.0
    outer loop
      vertex -0.041 -0.029 -0.002
      vertex -0.041 -0.021 0.002
      vertex -0.041 -0.021 -0.002
    endloop
  endfacet
  facet normal 0.0 -1.0 0.0
    outer loop
      vertex -0.041 -0.021 -0.002
      vertex -0.041 -0.021 0.002
      vertex -0.07500000000000001 -0.021 0.002
    endloop
  endfacet
  facet normal 0.0 -1.0 0.0
    outer loop
      vertex -0.041 -0.021 -0.002
      vertex -0.07500000000000001 -0.021 0.002
      vertex -0.07500000000000001 -0.021 -0.002
    endloop
  endfacet
  facet normal 1.0 0.0 0.0
    outer loop
      vertex -0.07500000000000001 -0.029 0.002
      vertex -0.07500000000000001 -0.029 -0.002
      vertex -0.07500000000000001 -0.021 -0.002
    endloop
  endfacet
  facet normal 1.0 -0.0 0.0
    outer loop
      vertex -0.07500000000000001 -0.029 0.002
      vertex -0.07500000000000001 -0.021 -0.002
      vertex -0.07500000000000001 -0.021 0.002
    endloop
  endfacet
  facet normal 0.0 0.0 1.0
    outer loop
      vertex 0.019999999999999997 -0.022 -0.002
      vertex 0.07 -0.022 -0.002
      vertex 0.07 -0.013999999999999999 -0.002
    endloop
  endfacet
  facet normal 0.0 0.0 1.0
    outer loop
      vertex 0.019999999999999997 -0.022 -0.002
      vertex 0.07 -0.013999999999999999 -0.002
      vertex 0.019999999999999997 -0.013999999999999999 -0.002
    endloop
  endfacet
  facet normal 0.0 0.0 -1.0
    outer loop
      vertex 0.019999999999999997 -0.022 0.002
      vertex 0.019999999999999997 -0.013999999999999999 0.002
      vertex 0.07 -0.013999999999999999 0.002
    endloop
  endfacet
  facet normal 0.0 0.0 -1.0
    outer loop
      vertex 0.019999999999999997 -0.022 0.002
      vertex 0.07 -0.013999999999999999 0.002
      vertex 0.07 -0.022 0.002
    endloop
  endfacet
  facet normal 0.0 1.0 0.0
    outer loop
      vertex 0.019999999999999997 -0.022 -0.002
      vertex 0.019999999999999997 -0.022 0.002
      vertex 0.07 -0.022 0.002
    endloop
  endfacet
  facet normal 0.0 1.0 0.0
    outer loop
      vertex 0.019999999999999997 -0.022 -0.002
      vertex 0.07 -0.022 0.002
      vertex 0.07 -0.022 -0.002
    endloop
  endfacet
  facet normal -1.0 0.0 0.0
    outer loop
      vertex 0.07 -0.022 -0.002
      vertex 0.07 -0.022 0.002
      vertex 0.07 -0.013999999999999999 0.002
    endloop
  endfacet
  facet normal -1.0 0.0 0.0
    outer loop
      vertex 0.07 -0.022 -0.002
      vertex 0.07 -0.013999999999999999 0.002
      vertex 0.07 -0.013999999999999999 -0.002
    endloop
  endfacet
  facet normal 0.0 -1.0 0.0
    outer loop
      vertex 0.07 -0.013999999999999999 -0.002
      vertex 0.07 -0.013999999999999999 0.002
      vertex 0.019999999999999997 -0.013999999999999999 0.002
    endloop
  endfacet
  facet normal 0.0 -1.0 0.0
    outer loop
      vertex 0.07 -0.013999999999999999 -0.002
      vertex 0.019999999999999997 -0.013999999999999999 0.002
      vertex 0.019999999999999997 -0.013999999999999999 -0.002
    endloop
  endfacet
  facet normal 1.0 0.0 0.0
    outer loop
      vertex 0.019999999999999997 -0.022 0.002
      vertex 0.019999999999999997 -0.022 -0.002
      vertex 0.019999999999999997 -0.013999999999999999 -0.002
    endloop
  endfacet
  facet normal 1.0 -0.0 0.0
    outer loop
      vertex 0.019999999999999997 -0.022 0.002
      vertex 0.019999999999999997 -0.013999999999999999 -0.002
      vertex 0.019999999999999997 -0.013999999999999999 0.002
    endloop
  endfacet
endsolid Scissors
